{"title":"Our.Mother's.House.1967.HQTV.XviD.AC3.[FrOnkY]","uid":9727497,"size":960707146,"categoryP":"video","categoryS":"movies","magnet":"?xt=urn:btih:44b9d4cfb6c150e289e83d82a949775f792f101a&amp;dn=Our.Mother%27s.House.1967.HQTV.XviD.AC3.%5BFrOnkY%5D&amp;tr=udp%3A%2F%2Ftracker.openbittorrent.com%3A80&amp;tr=udp%3A%2F%2Fopen.demonii.com%3A1337&amp;tr=udp%3A%2F%2Ftracker.coppersurfer.tk%3A6969&amp;tr=udp%3A%2F%2Fexodus.desync.com%3A6969","seeders":1,"leechers":0,"uploader":"HDmEntEs","files":-1,"time":1394317895,"description":"The children's story that is not for children...\n\n\nOur.Mother's.House.(A.Las.9,Cada.Noche).1967.HQTV.XviD.AC3.[FrOnkY].mkv\n\nFormat                                   : Matroska\nFormat version                           : Version 2\nFile size                                : 916 MiB\nDuration                                 : 1h 45mn\nOverall bit rate                         : 1 215 Kbps\nWriting application                      : mkvmerge v4.8.0 ('I Got The...') creado el May 24 2011 03:12:58\nWriting library                          : libebml v1.2.0 + libmatroska v1.1.0\nAttachment                               : Yes / Yes / Yes\n\nVideo\nID                                       : 1\nFormat                                   : MPEG-4 Visual\nFormat profile                           : Advanced Simple@L5\nFormat settings, BVOP                    : Yes\nFormat settings, QPel                    : No\nFormat settings, GMC                     : No warppoints\nFormat settings, Matrix                  : Custom\nCodec ID                                 : V_MS/VFW/FOURCC / XVID\nCodec ID/Hint                            : XviD\nDuration                                 : 1h 45mn\nBit rate                                 : 807 Kbps\nWidth                                    : 640 pixels\nHeight                                   : 480 pixels\nDisplay aspect ratio                     : 4:3\nFrame rate mode                          : Constant\nFrame rate                               : 23.976 fps\nColor space                              : YUV\nChroma subsampling                       : 4:2:0\nBit depth                                : 8 bits\nScan type                                : Progressive\nBits/(Pixel*Frame)                       : 0.110\nStream size                              : 609 MiB (66%)\nWriting library                          : XviD 1.2.0.dev47 (UTC 2006-11-01)\nLanguage                                 : English\nDefault                                  : Yes\nForced                                   : No\n\nAudio #1\nID                                       : 2\nFormat                                   : AC-3\nFormat/Info                              : Audio Coding 3\nMode extension                           : CM (complete main)\nFormat settings, Endianness              : Big\nCodec ID                                 : A_AC3\nDuration                                 : 1h 45mn\nBit rate mode                            : Constant\nBit rate                                 : 192 Kbps\nChannel(s)                               : 1 channel\nChannel positions                        : Front: C\nSampling rate                            : 48.0 KHz\nBit depth                                : 16 bits\nStream size                              : 145 MiB (16%)\nLanguage                                 : Spanish\nDefault                                  : Yes\nForced                                   : No\n\nAudio #2\nID                                       : 3\nFormat                                   : AC-3\nFormat/Info                              : Audio Coding 3\nMode extension                           : CM (complete main)\nFormat settings, Endianness              : Big\nCodec ID                                 : A_AC3\nDuration                                 : 1h 45mn\nBit rate mode                            : Constant\nBit rate                                 : 192 Kbps\nChannel(s)                               : 1 channel\nChannel positions                        : Front: C\nSampling rate                            : 48.0 KHz\nBit depth                                : 16 bits\nStream size                              : 145 MiB (16%)\nLanguage                                 : English\nDefault                                  : No\nForced                                   : No\n\nText\nID                                       : 4\nFormat                                   : UTF-8\nCodec ID                                 : S_TEXT/UTF8\nCodec ID/Info                            : UTF-8 Plain Text\nLanguage                                 : Spanish\nDefault                                  : No\nForced                                   : No\n\nMenu\n00:00:00.000                             : en:Chapter 01\n00:05:00.000                             : en:Chapter 02\n00:10:00.000                             : en:Chapter 03\n00:15:00.000                             : en:Chapter 04\n00:20:00.000                             : en:Chapter 05\n00:25:00.000                             : en:Chapter 06\n00:30:00.000                             : en:Chapter 07\n00:35:00.000                             : en:Chapter 08\n00:40:00.000                             : en:Chapter 09\n00:45:00.000                             : en:Chapter 10\n00:50:00.000                             : en:Chapter 11\n00:55:00.000                             : en:Chapter 12\n01:00:00.000                             : en:Chapter 13\n01:05:00.000                             : en:Chapter 14\n01:10:00.000                             : en:Chapter 15\n01:15:00.000                             : en:Chapter 16\n01:20:00.000                             : en:Chapter 17\n01:25:00.000                             : en:Chapter 18\n01:30:00.000                             : en:Chapter 19\n01:35:00.000                             : en:Chapter 20\n01:40:00.000                             : en:Chapter 21\n\n\nSCREENS\n\n\nDVD - HQTV\n &lt;a href=&quot;\nhttp://box.jisko.net/i/ab5fd7d0.png&quot; rel=&quot;nofollow&quot; target=&quot;_NEW&quot;&gt;\nhttp://box.jisko.net/i/ab5fd7d0.png&lt;/a&gt;\n &lt;a href=&quot;\nhttp://box.jisko.net/i/b85a3e6f.png&quot; rel=&quot;nofollow&quot; target=&quot;_NEW&quot;&gt;\nhttp://box.jisko.net/i/b85a3e6f.png&lt;/a&gt;","torrent":{"xt":"urn:btih:44b9d4cfb6c150e289e83d82a949775f792f101a","amp;dn":"Our.Mother%27s.House.1967.HQTV.XviD.AC3.%5BFrOnkY%5D","amp;tr":["udp%3A%2F%2Ftracker.openbittorrent.com%3A80","udp%3A%2F%2Fopen.demonii.com%3A1337","udp%3A%2F%2Ftracker.coppersurfer.tk%3A6969","udp%3A%2F%2Fexodus.desync.com%3A6969"],"infoHash":"44b9d4cfb6c150e289e83d82a949775f792f101a","infoHashBuffer":{"type":"Buffer","data":[68,185,212,207,182,193,80,226,137,232,61,130,169,73,119,95,121,47,16,26]},"announce":[],"urlList":[]}}